General

Format                         : MPEG-4
Format profile                 : Base Media
Codec ID                       : isom
File size                      : 135 MiB
Duration                       : 4mn 9s
Overall bit rate mode          : Variable
Overall bit rate               : 4 545 Kbps
Encoded date                   : UTC 2012-10-22 04:14:07
Tagged date                    : UTC 2012-10-22 04:14:07

Video
ID                             : 1
Format                         : AVC
Format/Info                    : Advanced Video Codec
Format profile                 : High@L3.0
Format settings, CABAC         : Yes
Format settings, ReFrames      : 2 frames
Codec ID                       : avc1
Codec ID/Info                  : Advanced Video Coding
Duration                       : 4mn 9s
Bit rate                       : 4 349 Kbps
Maximum bit rate               : 9 302 Kbps
Width                          : 720 pixels
Height                         : 480 pixels
Display aspect ratio           : 16:9
Original display aspect ratio  : 16:9
Frame rate mode                : Constant
Frame rate                     : 24.000 fps
Standard                       : NTSC
Color space                    : YUV
Chroma subsampling             : 4:2:0
Bit depth                      : 8 bits
Scan type                      : Progressive
Bits/(Pixel*Frame)             : 0.524
Stream size                    : 130 MiB (96%)


Audio
ID                             : 2
Format                         : AAC
Format/Info                    : Advanced Audio Codec
Format profile                 : LC
Codec ID                       : 40
Duration                       : 4mn 9s
Bit rate mode                  : Variable
Bit rate                       : 192 Kbps
Maximum bit rate               : 214 Kbps
Channel(s)                     : 2 channels
Channel positions              : Front: L R
Sampling rate                  : 44.1 KHz
Compression mode               : Lossy
Stream size                    : 5.74 MiB (4%)